<svg xmlns="http://www.w3.org/2000/svg" version="1.1" xmlns:xlink="http://www.w3.org/1999/xlink" xmlns:svgjs="http://svgjs.dev/svgjs" width="2000" height="1739" viewBox="0 0 2000 1739"><g transform="matrix(1,0,0,1,0.25308390952409354,0)"><svg viewBox="0 0 230 200" data-background-color="#3d2200" preserveAspectRatio="xMidYMid meet" height="1739" width="2000" xmlns="http://www.w3.org/2000/svg" xmlns:xlink="http://www.w3.org/1999/xlink"><g id="tight-bounds" transform="matrix(1,0,0,1,-0.029104649595268484,0)"><svg viewBox="0 0 230.05820929919054 200" height="200" width="230.05820929919054"><g><svg viewBox="0 0 231.20850034568645 200.99999999999997" height="200" width="230.05820929919054"><g><rect width="5.547402904370141" height="200.99999999999997" x="89.62049513170804" y="0" fill="#000000" opacity="1" stroke-width="0" stroke="transparent" fill-opacity="1" class="rect-yte-0" data-fill-palette-color="primary" rx="1%" id="yte-0" data-palette-color="#f8fddd"></rect></g><g transform="matrix(1,0,0,1,109.6898951679372,0.4999999999999858)"><svg viewBox="0 0 121.51860517774925 200" height="200" width="121.51860517774925"><g id="textblocktransform"><svg viewBox="0 0 121.51860517774925 200" height="200" width="121.51860517774925" id="textblock"><g><svg viewBox="0 0 121.51860517774925 200" height="200" width="121.51860517774925"><g transform="matrix(1,0,0,1,0,0)"><svg width="121.51860517774925" viewBox="0.68 -35.11 72.81 113.00999999999999" height="200" data-palette-color="#f8fddd"><svg></svg><svg></svg><svg></svg><g class="wordmark-text-0" data-fill-palette-color="primary" id="text-0"><path d="M9.18 0h-2.76c-0.213 0-0.363-0.07-0.45-0.21-0.093-0.14-0.14-0.453-0.14-0.94v0-30.12c0-0.407-0.087-0.61-0.26-0.61v0h-4.28c-0.16 0-0.273-0.013-0.34-0.04-0.067-0.027-0.127-0.103-0.18-0.23-0.06-0.133-0.09-0.33-0.09-0.59v0-1.37c0-0.42 0.047-0.69 0.14-0.81 0.087-0.127 0.243-0.19 0.47-0.19v0h12.99c0.213 0 0.363 0.063 0.45 0.19 0.093 0.12 0.14 0.39 0.14 0.81v0 1.37c0 0.26-0.03 0.457-0.09 0.59-0.053 0.127-0.113 0.203-0.18 0.23-0.067 0.027-0.173 0.04-0.32 0.04v0h-4.25c-0.173 0-0.26 0.203-0.26 0.61v0 30.12c0 0.487-0.047 0.8-0.14 0.94-0.087 0.14-0.237 0.21-0.45 0.21zM20.68 0h-2.15c-0.193 0-0.34-0.08-0.44-0.24-0.1-0.167-0.15-0.493-0.15-0.98v0-32.57c0-0.88 0.197-1.32 0.59-1.32v0h2.12c0.407 0 0.61 0.44 0.61 1.32v0 12.77c0 0.193 0.033 0.29 0.1 0.29v0c0.053 0 0.103-0.04 0.15-0.12v0c0.507-1.38 1.19-2.393 2.05-3.04 0.86-0.64 1.74-0.96 2.64-0.96v0c1.073 0 1.95 0.297 2.63 0.89 0.687 0.593 1.233 1.69 1.64 3.29 0.407 1.607 0.61 3.76 0.61 6.46v0 12.99c0 0.813-0.203 1.22-0.61 1.22v0h-2.13c-0.193 0-0.337-0.08-0.43-0.24-0.1-0.167-0.15-0.493-0.15-0.98v0-13.57c0-2.54-0.22-4.393-0.66-5.56-0.44-1.16-1.107-1.74-2-1.74v0c-1.04 0-1.94 0.74-2.7 2.22-0.76 1.48-1.14 3.26-1.14 5.34v0 13.31c0 0.487-0.047 0.813-0.14 0.98-0.1 0.16-0.247 0.24-0.44 0.24zM38.79-13.72v0h6.5c0.033 0 0.05-0.147 0.05-0.44v0c-0.1-2.753-0.403-4.767-0.91-6.04-0.5-1.28-1.28-1.92-2.34-1.92v0c-1.967 0-3.09 2.36-3.37 7.08v0c0 0.88 0.023 1.32 0.07 1.32zM48.05-6.49v0.48c0 1.807-0.477 3.307-1.43 4.5-0.953 1.187-2.367 1.78-4.24 1.78v0c-4.767 0-7.15-4.19-7.15-12.57v0c0-2.073 0.143-3.887 0.43-5.44 0.28-1.553 0.64-2.773 1.08-3.66 0.44-0.887 0.977-1.603 1.61-2.15 0.64-0.547 1.257-0.903 1.85-1.07 0.593-0.173 1.24-0.26 1.94-0.26v0c4.067 0 6.1 3.857 6.1 11.57v0c0 1.173-0.243 1.76-0.73 1.76v0h-8.64c-0.113 0-0.17 0.17-0.17 0.51v0c0 1.613 0.12 3.04 0.36 4.28 0.247 1.233 0.667 2.253 1.26 3.06 0.593 0.807 1.33 1.21 2.21 1.21v0c0.6 0 1.11-0.143 1.53-0.43 0.413-0.28 0.72-0.69 0.92-1.23 0.207-0.54 0.347-1 0.42-1.38 0.073-0.38 0.143-0.873 0.21-1.48v0c0.027-0.327 0.13-0.49 0.31-0.49v0h1.66c0.313 0 0.47 0.337 0.47 1.01z" fill="#000000" fill-rule="nonzero" stroke="none" stroke-width="1" stroke-linecap="butt" stroke-linejoin="miter" stroke-miterlimit="10" stroke-dasharray="" stroke-dashoffset="0" font-family="none" font-weight="none" font-size="none" text-anchor="none" style="mix-blend-mode: normal" data-fill-palette-color="primary" opacity="1"></path><path transform="translate(0,38.82)" d="M11.6 0.34v0c-0.607 0-1.137-0.02-1.59-0.06-0.453-0.04-0.963-0.133-1.53-0.28-0.56-0.147-1.05-0.347-1.47-0.6-0.427-0.253-0.867-0.603-1.32-1.05-0.46-0.447-0.857-0.98-1.19-1.6-0.333-0.613-0.653-1.373-0.96-2.28-0.307-0.9-0.56-1.92-0.76-3.06-0.193-1.14-0.347-2.467-0.46-3.98-0.113-1.513-0.17-3.183-0.17-5.01v0c0-2.247 0.093-4.27 0.28-6.07 0.187-1.793 0.44-3.31 0.76-4.55 0.313-1.233 0.72-2.303 1.22-3.21 0.493-0.9 0.997-1.607 1.51-2.12 0.513-0.513 1.12-0.92 1.82-1.22 0.7-0.307 1.35-0.503 1.95-0.59 0.607-0.087 1.3-0.13 2.08-0.13v0c1.46 0 2.663 0.21 3.61 0.63v0c0.02 0.02 0.053 0.043 0.1 0.07 0.047 0.033 0.087 0.08 0.12 0.14 0.033 0.053 0.05 0.13 0.05 0.23v0 2.37c0 0.193-0.057 0.29-0.17 0.29v0c-0.02 0-0.087-0.017-0.2-0.05-0.113-0.033-0.263-0.073-0.45-0.12-0.187-0.047-0.403-0.1-0.65-0.16-0.24-0.053-0.52-0.097-0.84-0.13-0.313-0.033-0.617-0.05-0.91-0.05v0c-0.767 0-1.43 0.087-1.99 0.26-0.567 0.167-1.137 0.547-1.71 1.14-0.58 0.593-1.053 1.413-1.42 2.46-0.367 1.04-0.663 2.467-0.89 4.28-0.227 1.813-0.34 3.99-0.34 6.53v0c0 2.573 0.097 4.767 0.29 6.58 0.2 1.813 0.457 3.247 0.77 4.3 0.32 1.047 0.753 1.863 1.3 2.45 0.54 0.587 1.08 0.967 1.62 1.14 0.533 0.167 1.193 0.25 1.98 0.25v0c1.187 0 2.22-0.153 3.1-0.46v0c0.013 0 0.05 0.06 0.11 0.18 0.053 0.127 0.08 0.203 0.08 0.23v0 2.3c0 0.033-0.027 0.11-0.08 0.23-0.06 0.12-0.097 0.19-0.11 0.21v0c-0.913 0.34-2.093 0.51-3.54 0.51zM28.06 0.07c-0.56 0.133-1.207 0.2-1.94 0.2-0.733 0-1.383-0.067-1.95-0.2-0.567-0.127-1.193-0.443-1.88-0.95-0.687-0.507-1.247-1.19-1.68-2.05-0.44-0.86-0.813-2.093-1.12-3.7-0.3-1.6-0.45-3.5-0.45-5.7v0c0-1.593 0.077-3.03 0.23-4.31 0.16-1.273 0.367-2.343 0.62-3.21 0.247-0.86 0.567-1.603 0.96-2.23 0.393-0.627 0.78-1.117 1.16-1.47 0.38-0.347 0.827-0.623 1.34-0.83 0.513-0.2 0.973-0.33 1.38-0.39 0.407-0.053 0.87-0.08 1.39-0.08v0c0.507 0 0.967 0.027 1.38 0.08 0.42 0.06 0.88 0.19 1.38 0.39 0.507 0.207 0.947 0.483 1.32 0.83 0.373 0.353 0.757 0.843 1.15 1.47 0.387 0.627 0.703 1.37 0.95 2.23 0.247 0.867 0.447 1.937 0.6 3.21 0.153 1.28 0.23 2.717 0.23 4.31v0c0 2.2-0.15 4.1-0.45 5.7-0.3 1.607-0.67 2.84-1.11 3.7-0.44 0.86-0.993 1.543-1.66 2.05-0.667 0.507-1.283 0.823-1.85 0.95zM26.1-2.49v0c0.553 0 1.02-0.117 1.4-0.35 0.387-0.24 0.75-0.693 1.09-1.36 0.34-0.667 0.597-1.677 0.77-3.03 0.167-1.347 0.25-3.047 0.25-5.1v0c0-2.067-0.083-3.777-0.25-5.13-0.173-1.347-0.433-2.343-0.78-2.99-0.353-0.64-0.717-1.073-1.09-1.3-0.373-0.227-0.837-0.34-1.39-0.34-0.553 0-1.023 0.113-1.41 0.34-0.38 0.227-0.74 0.667-1.08 1.32-0.34 0.647-0.597 1.643-0.77 2.99-0.173 1.34-0.26 3.043-0.26 5.11v0c0 2.053 0.083 3.753 0.25 5.1 0.16 1.353 0.41 2.363 0.75 3.03 0.347 0.667 0.71 1.12 1.09 1.36 0.38 0.233 0.857 0.35 1.43 0.35zM46.11 0.07c-0.567 0.133-1.213 0.2-1.94 0.2-0.733 0-1.387-0.067-1.96-0.2-0.567-0.127-1.193-0.443-1.88-0.95-0.68-0.507-1.24-1.19-1.68-2.05-0.44-0.86-0.81-2.093-1.11-3.7-0.307-1.6-0.46-3.5-0.46-5.7v0c0-1.593 0.08-3.03 0.24-4.31 0.153-1.273 0.357-2.343 0.61-3.21 0.253-0.86 0.573-1.603 0.96-2.23 0.393-0.627 0.78-1.117 1.16-1.47 0.387-0.347 0.833-0.623 1.34-0.83 0.513-0.2 0.973-0.33 1.38-0.39 0.407-0.053 0.873-0.08 1.4-0.08v0c0.5 0 0.957 0.027 1.37 0.08 0.42 0.06 0.88 0.19 1.38 0.39 0.507 0.207 0.947 0.483 1.32 0.83 0.373 0.353 0.757 0.843 1.15 1.47 0.393 0.627 0.71 1.37 0.95 2.23 0.247 0.867 0.447 1.937 0.6 3.21 0.153 1.28 0.23 2.717 0.23 4.31v0c0 2.2-0.15 4.1-0.45 5.7-0.3 1.607-0.67 2.84-1.11 3.7-0.44 0.86-0.993 1.543-1.66 2.05-0.667 0.507-1.28 0.823-1.84 0.95zM44.14-2.49v0c0.553 0 1.02-0.117 1.4-0.35 0.387-0.24 0.75-0.693 1.09-1.36 0.34-0.667 0.597-1.677 0.77-3.03 0.173-1.347 0.26-3.047 0.26-5.1v0c0-2.067-0.087-3.777-0.26-5.13-0.173-1.347-0.433-2.343-0.78-2.99-0.353-0.64-0.717-1.073-1.09-1.3-0.373-0.227-0.837-0.34-1.39-0.34-0.553 0-1.02 0.113-1.4 0.34-0.387 0.227-0.75 0.667-1.09 1.32-0.34 0.647-0.597 1.643-0.77 2.99-0.167 1.34-0.25 3.043-0.25 5.11v0c0 2.053 0.08 3.753 0.24 5.1 0.16 1.353 0.413 2.363 0.76 3.03 0.34 0.667 0.7 1.12 1.08 1.36 0.387 0.233 0.863 0.35 1.43 0.35zM58.42 0h-2.15c-0.387 0-0.58-0.513-0.58-1.54v0-32.03c0-1.027 0.193-1.54 0.58-1.54v0h2.15c0.393 0 0.59 0.513 0.59 1.54v0 20.83c0 0.227 0.04 0.34 0.12 0.34v0c0.033-0.02 0.057-0.047 0.07-0.08v0c0.493-1.133 1.057-2.287 1.69-3.46 0.633-1.173 1.37-2.48 2.21-3.92 0.84-1.44 1.463-2.533 1.87-3.28v0c0.52-0.947 0.927-1.42 1.22-1.42v0h2.29c0.167 0 0.25 0.17 0.25 0.51v0c0 0.26-0.09 0.553-0.27 0.88v0l-4.84 8.91c-0.06 0.167-0.09 0.297-0.09 0.39v0c0 0.053 0.03 0.177 0.09 0.37v0l5.23 12.01c0.127 0.307 0.19 0.583 0.19 0.83v0c0 0.44-0.09 0.66-0.27 0.66v0h-2.44c-0.26 0-0.577-0.44-0.95-1.32v0l-4.42-10.52c-0.067-0.16-0.13-0.24-0.19-0.24v0c-0.053 0-0.103 0.057-0.15 0.17v0c-0.113 0.147-0.287 0.49-0.52 1.03-0.24 0.547-0.457 1.057-0.65 1.53v0l-0.29 0.71c-0.1 0.24-0.15 0.563-0.15 0.97v0 6.13c0 1.027-0.197 1.54-0.59 1.54z" fill="#000000" fill-rule="nonzero" stroke="none" stroke-width="1" stroke-linecap="butt" stroke-linejoin="miter" stroke-miterlimit="10" stroke-dasharray="" stroke-dashoffset="0" font-family="none" font-weight="none" font-size="none" text-anchor="none" style="mix-blend-mode: normal" data-fill-palette-color="primary" opacity="1"></path><path transform="translate(0,77.63)" d="M6.98-20.04v0h5.01c1.027 0 1.853-0.47 2.48-1.41 0.627-0.933 0.94-2.23 0.94-3.89v0c0-4.447-1.49-6.67-4.47-6.67v0h-3.96c-0.207 0-0.31 0.173-0.31 0.52v0 10.98c0 0.313 0.103 0.47 0.31 0.47zM6.98-3v0h3.84c1.787 0 3.12-0.637 4-1.91 0.88-1.267 1.32-3.073 1.32-5.42v0c0-2.013-0.407-3.647-1.22-4.9-0.813-1.253-1.847-1.88-3.1-1.88v0h-4.84c-0.207 0-0.31 0.187-0.31 0.56v0 13.11c0 0.193 0.023 0.313 0.07 0.36 0.047 0.053 0.127 0.08 0.24 0.08zM11.33 0h-7.94c-0.147 0-0.26-0.017-0.34-0.05-0.08-0.033-0.153-0.127-0.22-0.28-0.067-0.153-0.1-0.387-0.1-0.7v0-33.03c0-0.453 0.053-0.74 0.16-0.86 0.107-0.127 0.273-0.19 0.5-0.19v0h8.4c4.833 0 7.25 3.223 7.25 9.67v0c0 3.073-0.813 5.213-2.44 6.42v0c-0.147 0.113-0.22 0.203-0.22 0.27v0c0 0.1 0.083 0.18 0.25 0.24v0c2.213 1.5 3.32 4.22 3.32 8.16v0c0 1.967-0.197 3.63-0.59 4.99-0.393 1.36-0.97 2.427-1.73 3.2-0.767 0.773-1.66 1.327-2.68 1.66-1.013 0.333-2.22 0.5-3.62 0.5zM32.51 0.07c-0.56 0.133-1.207 0.2-1.94 0.2-0.733 0-1.387-0.067-1.96-0.2-0.567-0.127-1.193-0.443-1.88-0.95-0.68-0.507-1.24-1.19-1.68-2.05-0.44-0.86-0.81-2.093-1.11-3.7-0.3-1.6-0.45-3.5-0.45-5.7v0c0-1.593 0.077-3.03 0.23-4.31 0.153-1.273 0.357-2.343 0.61-3.21 0.253-0.86 0.573-1.603 0.96-2.23 0.393-0.627 0.78-1.117 1.16-1.47 0.387-0.347 0.837-0.623 1.35-0.83 0.507-0.2 0.963-0.33 1.37-0.39 0.413-0.053 0.88-0.08 1.4-0.08v0c0.5 0 0.96 0.027 1.38 0.08 0.413 0.06 0.873 0.19 1.38 0.39 0.5 0.207 0.937 0.483 1.31 0.83 0.38 0.353 0.763 0.843 1.15 1.47 0.393 0.627 0.71 1.37 0.95 2.23 0.247 0.867 0.447 1.937 0.6 3.21 0.153 1.28 0.23 2.717 0.23 4.31v0c0 2.2-0.15 4.1-0.45 5.7-0.3 1.607-0.67 2.84-1.11 3.7-0.44 0.86-0.993 1.543-1.66 2.05-0.667 0.507-1.28 0.823-1.84 0.95zM30.54-2.49v0c0.553 0 1.023-0.117 1.41-0.35 0.38-0.24 0.74-0.693 1.08-1.36 0.34-0.667 0.597-1.677 0.77-3.03 0.173-1.347 0.26-3.047 0.26-5.1v0c0-2.067-0.087-3.777-0.26-5.13-0.173-1.347-0.433-2.343-0.78-2.99-0.347-0.64-0.71-1.073-1.09-1.3-0.373-0.227-0.837-0.34-1.39-0.34-0.553 0-1.02 0.113-1.4 0.34-0.387 0.227-0.75 0.667-1.09 1.32-0.34 0.647-0.597 1.643-0.77 2.99-0.167 1.34-0.25 3.043-0.25 5.11v0c0 2.053 0.08 3.753 0.24 5.1 0.16 1.353 0.413 2.363 0.76 3.03 0.34 0.667 0.7 1.12 1.08 1.36 0.387 0.233 0.863 0.35 1.43 0.35zM50.55 0.07c-0.56 0.133-1.207 0.2-1.94 0.2-0.733 0-1.383-0.067-1.95-0.2-0.573-0.127-1.2-0.443-1.88-0.95-0.687-0.507-1.25-1.19-1.69-2.05-0.44-0.86-0.81-2.093-1.11-3.7-0.3-1.6-0.45-3.5-0.45-5.7v0c0-1.593 0.077-3.03 0.23-4.31 0.153-1.273 0.357-2.343 0.61-3.21 0.253-0.86 0.573-1.603 0.96-2.23 0.393-0.627 0.78-1.117 1.16-1.47 0.387-0.347 0.837-0.623 1.35-0.83 0.513-0.2 0.973-0.33 1.38-0.39 0.407-0.053 0.87-0.08 1.39-0.08v0c0.507 0 0.967 0.027 1.38 0.08 0.413 0.06 0.873 0.19 1.38 0.39 0.5 0.207 0.94 0.483 1.32 0.83 0.373 0.353 0.753 0.843 1.14 1.47 0.393 0.627 0.713 1.37 0.96 2.23 0.24 0.867 0.437 1.937 0.59 3.21 0.16 1.28 0.24 2.717 0.24 4.31v0c0 2.2-0.153 4.1-0.46 5.7-0.3 1.607-0.67 2.84-1.11 3.7-0.44 0.86-0.993 1.543-1.66 2.05-0.667 0.507-1.28 0.823-1.84 0.95zM48.58-2.49v0c0.553 0 1.023-0.117 1.41-0.35 0.38-0.24 0.74-0.693 1.08-1.36 0.347-0.667 0.603-1.677 0.77-3.03 0.173-1.347 0.26-3.047 0.26-5.1v0c0-2.067-0.087-3.777-0.26-5.13-0.167-1.347-0.427-2.343-0.78-2.99-0.347-0.64-0.707-1.073-1.08-1.3-0.38-0.227-0.847-0.34-1.4-0.34-0.553 0-1.02 0.113-1.4 0.34-0.38 0.227-0.743 0.667-1.09 1.32-0.34 0.647-0.597 1.643-0.77 2.99-0.167 1.34-0.25 3.043-0.25 5.11v0c0 2.053 0.08 3.753 0.24 5.1 0.167 1.353 0.42 2.363 0.76 3.03 0.34 0.667 0.703 1.12 1.09 1.36 0.38 0.233 0.853 0.35 1.42 0.35zM62.87 0h-2.15c-0.393 0-0.59-0.513-0.59-1.54v0-32.03c0-1.027 0.197-1.54 0.59-1.54v0h2.15c0.387 0 0.58 0.513 0.58 1.54v0 20.83c0 0.227 0.04 0.34 0.12 0.34v0c0.033-0.02 0.06-0.047 0.08-0.08v0c0.487-1.133 1.047-2.287 1.68-3.46 0.633-1.173 1.37-2.48 2.21-3.92 0.84-1.44 1.463-2.533 1.87-3.28v0c0.52-0.947 0.927-1.42 1.22-1.42v0h2.29c0.167 0 0.25 0.17 0.25 0.51v0c0 0.26-0.09 0.553-0.27 0.88v0l-4.83 8.91c-0.067 0.167-0.1 0.297-0.1 0.39v0c0 0.053 0.033 0.177 0.1 0.37v0l5.22 12.01c0.133 0.307 0.2 0.583 0.2 0.83v0c0 0.44-0.09 0.66-0.27 0.66v0h-2.44c-0.26 0-0.58-0.44-0.96-1.32v0l-4.41-10.52c-0.067-0.16-0.133-0.24-0.2-0.24v0c-0.047 0-0.097 0.057-0.15 0.17v0c-0.113 0.147-0.287 0.49-0.52 1.03-0.24 0.547-0.457 1.057-0.65 1.53v0l-0.29 0.71c-0.1 0.24-0.15 0.563-0.15 0.97v0 6.13c0 1.027-0.193 1.54-0.58 1.54z" fill="#000000" fill-rule="nonzero" stroke="none" stroke-width="1" stroke-linecap="butt" stroke-linejoin="miter" stroke-miterlimit="10" stroke-dasharray="" stroke-dashoffset="0" font-family="none" font-weight="none" font-size="none" text-anchor="none" style="mix-blend-mode: normal" data-fill-palette-color="primary" opacity="1"></path></g></svg></g></svg></g></svg></g></svg></g><g transform="matrix(1,0,0,1,0,53.5410111981498)"><svg viewBox="0 0 75.09849799984903 93.91797760370036" height="93.91797760370036" width="75.09849799984903"><g><svg xmlns="http://www.w3.org/2000/svg" xml:space="preserve" viewBox="14.017359359359368 4.999999999999999 71.96561289369282 89.99999999999999" x="0" y="0" height="93.91797760370036" width="75.09849799984903" class="icon-icon-0" data-fill-palette-color="accent" id="icon-0"><path fill-rule="evenodd" d="M80.208 8.35q-1.25 0.65-4.05 0.4-2.751-0.3-4.65-1.3 3.8-1.1 8.7 0.9m-2.3 7.1q2.25-0.65 5.899 0.15 1.1 0.25 1.601 1.6 0.55 1.45 0.55 3.5 0.15 8.4-0.601 13.8-0.55 3.75-0.55 9.25 0.1 6.25 0.101 9.35-0.2 11.8-0.051 26.7 0 4.8-3.949 7.1a25.7 25.7 0 0 1-7.801 2.9q-7.4 1.45-20.6 1.1l-13.3-0.75q-8.05-0.45-13.351-0.2-1.549 0.05-2.1-0.15-1.1-0.35-1.25-1.8-2.25-1.5-2.5-4.25 0-0.3 0.25-4.95 0.05-1.25-0.15-3.25-0.2-2.55-0.199-3.3-0.5-11.65-0.301-17.6 0.15-6.1 0.15-8.1-0.15-4.55-0.85-8.05-0.25-1.449-0.101-4.5-0.4-8.7-1.3-13.65-0.2-0.95 0.15-1.15 0.6-0.4 0.699-1.05 0-0.2-0.05-1.25-0.45-3.75 3.45-4.75 6.65-1.701 16.95-0.9 0.75 0.1 2.35 0.25 3.4-0.15 8.851 0 7 0.35 8.8 0.35 2.3 0 6.399 0.55 4.55 0.6 6.4 0.7 2.2 0.1 3.25 0 1.35-0.15 1.35 1 0 1.1-1.449 1.1l-1.2-0.25q-1.95-0.3-2.55 1.85-0.401 1.25-0.5 3.85l-0.15 6q0 1.25-1.05 1.65-1 0.3-1.601-1-0.75-1.45-2.899-3.7-1.05 1.05-2.101 3.8-0.499 1.45-1.85 1.15-0.95-0.2-0.95-1.65l-0.3-8.7q-0.05-1-0.1-3-0.35-1.75-2.101-1.65-2.15 0.099-7.149-0.3-4.65-0.3-7.2-0.05-1.15 0.15-2.851-0.05a59 59 0 0 0-2.85-0.25q-2.55 0-3.9-0.15-3.75-0.35-7.1 1.4-2.65 1.45-5.6 4.55-0.8 0.9-0.601 2.15 0.35 1.55 0.45 2.45 0.85-0.95 4.65-4.45 2.849-2.55 4.25-4.5l0.6-0.65q0.35-0.3 0.8 0.1 0.75 0.65-0.25 1.5l-8.649 7.95q-1.35 1.4-1.5 2-0.152 0.55 0.25 2.5l8.699-7.95q0.8-0.65 1.301-0.15 0.7 0.7-0.301 1.25-1.2 0.7-2.699 2.2l-2.4 2.4q-0.5 0.4-2.7 2.75-2.25 2.4-1.399 6.25l7.699-7.4a10.3 10.3 0 0 1 1.551-1.3q0.249-0.25 0.6 0.05 0.25 0.15 0.25 0.3a0.48 0.48 0 0 1-0.15 0.45l-1.85 1.9q-5.15 4.55-6.45 5.8-1.75 1.7-1.899 2.8-0.1 1.1 1 3.7 2.2-1.7 6.35-6.35l1.05-1.4q0.45-0.45 0.8-0.2 0.65 0.25 0.2 0.95-1.4 1.75-2.149 2.5-2.25 2.4-3.5 3.4-4.05 3.2-2.801 8.1l8.65-9.05q0.3 1.05-0.1 1.9-0.15 0.3-0.9 1.1l-4.25 4.2q-1.95 1.85-2.75 3.5-1 2.05-0.7 4.4 0 0.3-0.149 2.1-0.1 1.3 0.25 2.25 1.7-1.6 4.1-5.05 2.5-3.651 3.85-5.1l0.7 0.5q-2.15 3.3-3.25 4.8-1.9 2.6-3.649 4.4-2.85 2.9-1.551 7.85l6.75-9q0.25-0.45 0.75-0.25 0.75 0.3 0.2 1l-1.8 2.35q-0.75 0.95-5.1 6.7-0.9 1.2-1.051 2.65-0.049 1.05 0.25 3.2 2.001-2 6-7.4 0.05-0.15 0.551-1.05 0.4-0.65 1-0.35 0.65 0.4 0.199 1.1l-2.6 3.6a56 56 0 0 1-3.4 4.25q-2 2.5-1.3 5.3 0.55 0.15 1-0.25 0.2-0.25 0.55-0.9l4.45-6q0.2-0.25 0.55-0.9 0.451-0.35 1 0.1 0.451 0.35 0.15 0.75-0.5 0.4-0.65 0.6l-5.949 8.35q-1 1.55-1.101 2.65-0.05 1.15 0.601 3.55 0.85-2.05 3.199-4.6 2.651-2.7 3.301-4.1 0.65-1.2 1.5-0.6 0.499 0.35 0.35 0.75-0.1 0.15-0.6 0.7l-5.4 6q-0.7 0.65-0.95 0.95-0.45 0.6 0.25 1.2 0.6 0.5 1.2 0 0.1-0.15 0.9-1.1 1.9-2.05 3.149-4.3 0.45-0.75 1.05-0.3 0.501 0.3 0.15 1.05a23 23 0 0 1-2.9 3.8q-0.7 0.7-1 1.1-0.599 0.6-0.8 1.35 1.3 0.45 2.05 0.2 0.951-0.25 1.4-1.45 0.35-0.95 1.15-0.6 0.45 0.2 0.449 0.55-0.05 0.15-0.3 0.7-0.3 0.55 0.05 0.8 0.2 0.15 0.851 0.2l6 0.35q14.2 0.65 17.05 0.7 9.2 0.25 15.5-0.7 2.7-0.4 4.55-2.6 1.75-2.2 1.65-4.7-0.15-4.5 0.2-10.75 0.2-3.65 0.649-10.8 0.25-5 0.05-12-0.2-4-0.5-11.95l-0.149-6.7q-0.05-3.95 0.2-6.75 0.3-2.7-0.601-4.4-0.896-1.55 1.104-2.2m1.5 3.15a186 186 0 0 0-0.051 3.55q-0.3 10.1 0.301 18.9 0.45 6.15 0.399 12.2-0.65 16.6-0.75 24.95 0 5.15-1.7 8.75 2.55-1.2 3.75-2.65 1.251-1.6 1.301-4 0-0.6 0.149-2.25 0.1-1.45 0.05-2.25-0.05-3.15 0.45-18.8 0.25-7.8 0.05-11.6-0.2-2.95 0.051-6.6 0.049-1.6 0.5-6.55 0.3-5.15 0.3-5.95 0.15-3.4-0.351-6-0.25-1.65-0.8-2.2-0.5-0.5-2.149-0.9-0.951-0.25-1.25 0.15-0.3 0.3-0.25 1.25M65.458 7q-1.05 0.85-2.851 0.6-2.95-0.45-7.649-0.7-6.2-0.3-7.55-0.45l-1.551-0.1q-0.5-0.15-0.5-0.65 0-0.55 0.601-0.55 0.45-0.15 1.2-0.15 5.1 0.1 17.6 1.25 0.45 0 0.7 0.75m-4.101 8.05q-0.25 5.85 0.101 9.05 1.25-0.75 1.149-1.95 0-1.55 1.101-1.85 1.25-0.35 2.2 1.1 0.299 0.55 1 1.65 0.598 0.849 1.5 1.2 0.299-0.95 0.35-2.35v-2.2q0.2-4-0.4-4.75-0.7-0.75-4.75-1.05l-0.899-0.05q-1.352-0.15-1.352 1.2m-0.699 20.15q-0.75-0.1-1 0.05l-8-1.45q-1.151-0.25-0.9-1 0.15-0.45 0.5-0.45 0.25 0 0.75 0.15 0.7 0.051 3.8 0.75 2.35 0.5 3.851 0.3 1.6-0.1 1.6 0.95-0.051 0.7-0.601 0.7m-1.35 2q2.1-0.6 3.45 0.65 1.4 1.35 1 3.45-0.55 2.85-1.05 4.15-0.85 2.2-2.45 3.55-2.35 2.1-5.8 1.75-0.8-0.1-1.2-0.1-0.7 0.05-1.05 0.55-1.9 2.3-2.7 3.55-0.2 0.25 0.65 1.25 3 3.85 3.85 4.6l1.45 1.5q0.75 0.8-0.15 1.95-0.8 1-1.75-0.25l-3.85-4.95q-1.451-1.95-1.9-2.35-1.05 0.9-2.25 2.4-1.75 2.3-1.95 2.5-0.299 0.4-2.05 2.55-0.8 1-1.05 1.15-0.7 0.5-1.3 0-0.75-0.7-0.25-1.3 0.3-0.4 1.1-1 1.7-2.1 5.3-6.1 1.8-1.95 0.4-3.75-0.55-0.7-2.15-3.25-0.9-1.65-2.8-1.9-1.6-0.15-3.85-2.65-2.2-2.45-2.351-4.1 0-0.55 0.4-0.7a0.8 0.8 0 0 1 0.55 0q0.4 0.15 0.7 0.6 0.2 0.2 0.55 0.7 1.15 1.6 1.45 1.9 0.85 1.1 2 1.65 0-1.15-0.75-2.5-1-1.7-1.15-2.2-0.05-0.3-0.25-0.9-0.049-0.5 0.4-0.75 0.6-0.35 1.35 0.85 0.25 0.35 1.4 2.6 0.85 1.65 1.7 2.45 1.05-1.45 1.05-2.3 0.05-0.95-0.95-2.15l-2.3-2.3q-0.75-0.7-0.15-1.3 0.6-0.7 1.4-0.2 2.6 1.5 3.55 4.2 0.9 2.75-0.35 5.55-0.65 1.4-0.101 2.2l2.95 4.8 2.65-3.05q0.5-0.6 0.45-1.4-0.5-2.8 0.649-5.5 0.95-1.9 3.2-4.6 0.95-1.2 1.75-1 0.65 0.15 1.3-0.1 0.453-0.1 1.253-0.4m-4.65 10.75q1.049 0.75 2.149 0.5 2.25-0.55 3.9-3.15t1.05-4.85q-0.35-1.7-2-1.65-2.25 0.05-4.45 2.6-2.15 2.4-1.85 4.75 0.2 1.1 1.201 1.8m26.199-15.6q-0.8-6.95 0.801-11.65v11.65z m1.551 34.5q0.15 2.3-0.25 3.95-0.35 1.55-0.45 3.7v3.75q0 1.45-0.05 2.1-0.2 1.25-0.851 1.95l-0.75-0.05 1.5-19.4q0.55 0 0.55 0.05z m-27.65 4.45l-5.45-0.3q-2.4 0.15-8.8-0.4-1.3 0-1.2-0.85 0.05-0.65 1.2-0.45 2.8 0.45 6.8 0.5 2.25 0.05 6.851 0.1 0.65 0 0.85 0.1 0.45 0.1 0.3 0.75-0.052 0.5-0.551 0.55m7.2-0.45q1.05 0.15 0.8 0.9c-0.25 0.75-0.467 0.667-0.9 0.5q-1.099-0.35-1.3-0.45-0.65-0.3-1.05-1 0.55-0.25 1.35-0.15 0.35 0.1 1.1 0.2m1.149 22.85q0.55 0.1 0.801 0.6-0.201 0.65-0.75 0.7h-1l-14.4-0.05q-0.75 0-0.85-0.05-0.451-0.25-0.5-0.65-0.151-0.55 0.5-0.7 0.5-0.1 0.85-0.05 2.65 0.4 7.15 0.2 5.25-0.2 7.199-0.05 0.301 0.05 1 0.05m12.351-0.5q2.65-0.2 3.5-0.5t2.899-2q1.7-1.45 3.25-1.65-3.65 6.45-12.949 5.1 1.1-0.75 3.3-0.95m-55.45-75.8q2.25-1.35 3.65-3.55-1.651 0.45-2.5 1.1-0.85 0.85-1.15 2.45m24 16.1q-1.5-0.2-3.05-1.45 1.25 0.05 3.55 0.15 2 0.1 3.55 0.6-2.5 0.9-4.05 0.7m-29.35 24.1q-0.8-4.75-0.601-7.45 0-1.1 0.75-1.15 0.75 0 0.75 1.1l0.05 7.8q-0.948 0.201-0.949-0.3m-0.35 5.75q0.05-0.45 0.601-0.5 0.649-0.05 0.899 1l0.4 2.3q0.35 2.75 0.35 7.45 0.05 5.5 0.15 7.45 0.15 1.3-0.8 1.4-0.8 0.05-0.95-1.25-0.152-1.2 0-2.85 0.1-0.9 0.35-2.8l-1-11.35q-0.1-0.65 0-0.85m1.1 24.55q-0.3-0.7 0.5-0.85 0.9-0.1 1.149 1-0.15 0.9-0.6 0.95-0.5 0.05-0.75-0.35a17 17 0 0 1-0.299-0.75" clip-rule="evenodd" fill="#000000" data-fill-palette-color="accent"></path></svg></g></svg></g></svg></g><defs></defs></svg><rect width="230.05820929919054" height="200" fill="none" stroke="none" visibility="hidden"></rect></g></svg></g></svg>