<svg xmlns="http://www.w3.org/2000/svg" version="1.1" xmlns:xlink="http://www.w3.org/1999/xlink" xmlns:svgjs="http://svgjs.dev/svgjs" width="128" height="128" viewBox="0 0 128 128"><g transform="matrix(0.64375,0,0,0.64375,22.988825410782255,12.760752631578946)"><svg viewBox="0 0 76 95" data-background-color="#3d2200" preserveAspectRatio="xMidYMid meet" height="160" width="128" xmlns="http://www.w3.org/2000/svg" xmlns:xlink="http://www.w3.org/1999/xlink"><g id="tight-bounds" transform="matrix(1,0,0,1,-0.17415935945936667,-0.24049999999999727)"><svg viewBox="0 0 76.34831871891873 95.481" height="95.481" width="76.34831871891873"><g><svg viewBox="0 0 76.34831871891873 95.481" height="95.481" width="76.34831871891873"><g><svg viewBox="0 0 76.34831871891873 95.481" height="95.481" width="76.34831871891873"><g id="textblocktransform"><svg viewBox="0 0 76.34831871891873 95.481" height="95.481" width="76.34831871891873" id="textblock"><g><svg viewBox="0 0 76.34831871891873 95.481" height="95.481" width="76.34831871891873"><g><svg viewBox="0 0 76.34831871891873 95.481" height="95.481" width="76.34831871891873"><g><svg xmlns="http://www.w3.org/2000/svg" xml:space="preserve" viewBox="14.017359359359368 4.999999999999999 71.96561289369282 89.99999999999999" x="0" y="0" height="95.481" width="76.34831871891873" class="icon-icon-0" data-fill-palette-color="accent" id="icon-0"><path fill-rule="evenodd" d="M80.208 8.35q-1.25 0.65-4.05 0.4-2.751-0.3-4.65-1.3 3.8-1.1 8.7 0.9m-2.3 7.1q2.25-0.65 5.899 0.15 1.1 0.25 1.601 1.6 0.55 1.45 0.55 3.5 0.15 8.4-0.601 13.8-0.55 3.75-0.55 9.25 0.1 6.25 0.101 9.35-0.2 11.8-0.051 26.7 0 4.8-3.949 7.1a25.7 25.7 0 0 1-7.801 2.9q-7.4 1.45-20.6 1.1l-13.3-0.75q-8.05-0.45-13.351-0.2-1.549 0.05-2.1-0.15-1.1-0.35-1.25-1.8-2.25-1.5-2.5-4.25 0-0.3 0.25-4.95 0.05-1.25-0.15-3.25-0.2-2.55-0.199-3.3-0.5-11.65-0.301-17.6 0.15-6.1 0.15-8.1-0.15-4.55-0.85-8.05-0.25-1.449-0.101-4.5-0.4-8.7-1.3-13.65-0.2-0.95 0.15-1.15 0.6-0.4 0.699-1.05 0-0.2-0.05-1.25-0.45-3.75 3.45-4.75 6.65-1.701 16.95-0.9 0.75 0.1 2.35 0.25 3.4-0.15 8.851 0 7 0.35 8.8 0.35 2.3 0 6.399 0.55 4.55 0.6 6.4 0.7 2.2 0.1 3.25 0 1.35-0.15 1.35 1 0 1.1-1.449 1.1l-1.2-0.25q-1.95-0.3-2.55 1.85-0.401 1.25-0.5 3.85l-0.15 6q0 1.25-1.05 1.65-1 0.3-1.601-1-0.75-1.45-2.899-3.7-1.05 1.05-2.101 3.8-0.499 1.45-1.85 1.15-0.95-0.2-0.95-1.65l-0.3-8.7q-0.05-1-0.1-3-0.35-1.75-2.101-1.65-2.15 0.099-7.149-0.3-4.65-0.3-7.2-0.05-1.15 0.15-2.851-0.05a59 59 0 0 0-2.85-0.25q-2.55 0-3.9-0.15-3.75-0.35-7.1 1.4-2.65 1.45-5.6 4.55-0.8 0.9-0.601 2.15 0.35 1.55 0.45 2.45 0.85-0.95 4.65-4.45 2.849-2.55 4.25-4.5l0.6-0.65q0.35-0.3 0.8 0.1 0.75 0.65-0.25 1.5l-8.649 7.95q-1.35 1.4-1.5 2-0.152 0.55 0.25 2.5l8.699-7.95q0.8-0.65 1.301-0.15 0.7 0.7-0.301 1.25-1.2 0.7-2.699 2.2l-2.4 2.4q-0.5 0.4-2.7 2.75-2.25 2.4-1.399 6.25l7.699-7.4a10.3 10.3 0 0 1 1.551-1.3q0.249-0.25 0.6 0.05 0.25 0.15 0.25 0.3a0.48 0.48 0 0 1-0.15 0.45l-1.85 1.9q-5.15 4.55-6.45 5.8-1.75 1.7-1.899 2.8-0.1 1.1 1 3.7 2.2-1.7 6.35-6.35l1.05-1.4q0.45-0.45 0.8-0.2 0.65 0.25 0.2 0.95-1.4 1.75-2.149 2.5-2.25 2.4-3.5 3.4-4.05 3.2-2.801 8.1l8.65-9.05q0.3 1.05-0.1 1.9-0.15 0.3-0.9 1.1l-4.25 4.2q-1.95 1.85-2.75 3.5-1 2.05-0.7 4.4 0 0.3-0.149 2.1-0.1 1.3 0.25 2.25 1.7-1.6 4.1-5.05 2.5-3.651 3.85-5.1l0.7 0.5q-2.15 3.3-3.25 4.8-1.9 2.6-3.649 4.4-2.85 2.9-1.551 7.85l6.75-9q0.25-0.45 0.75-0.25 0.75 0.3 0.2 1l-1.8 2.35q-0.75 0.95-5.1 6.7-0.9 1.2-1.051 2.65-0.049 1.05 0.25 3.2 2.001-2 6-7.4 0.05-0.15 0.551-1.05 0.4-0.65 1-0.35 0.65 0.4 0.199 1.1l-2.6 3.6a56 56 0 0 1-3.4 4.25q-2 2.5-1.3 5.3 0.55 0.15 1-0.25 0.2-0.25 0.55-0.9l4.45-6q0.2-0.25 0.55-0.9 0.451-0.35 1 0.1 0.451 0.35 0.15 0.75-0.5 0.4-0.65 0.6l-5.949 8.35q-1 1.55-1.101 2.65-0.05 1.15 0.601 3.55 0.85-2.05 3.199-4.6 2.651-2.7 3.301-4.1 0.65-1.2 1.5-0.6 0.499 0.35 0.35 0.75-0.1 0.15-0.6 0.7l-5.4 6q-0.7 0.65-0.95 0.95-0.45 0.6 0.25 1.2 0.6 0.5 1.2 0 0.1-0.15 0.9-1.1 1.9-2.05 3.149-4.3 0.45-0.75 1.05-0.3 0.501 0.3 0.15 1.05a23 23 0 0 1-2.9 3.8q-0.7 0.7-1 1.1-0.599 0.6-0.8 1.35 1.3 0.45 2.05 0.2 0.951-0.25 1.4-1.45 0.35-0.95 1.15-0.6 0.45 0.2 0.449 0.55-0.05 0.15-0.3 0.7-0.3 0.55 0.05 0.8 0.2 0.15 0.851 0.2l6 0.35q14.2 0.65 17.05 0.7 9.2 0.25 15.5-0.7 2.7-0.4 4.55-2.6 1.75-2.2 1.65-4.7-0.15-4.5 0.2-10.75 0.2-3.65 0.649-10.8 0.25-5 0.05-12-0.2-4-0.5-11.95l-0.149-6.7q-0.05-3.95 0.2-6.75 0.3-2.7-0.601-4.4-0.896-1.55 1.104-2.2m1.5 3.15a186 186 0 0 0-0.051 3.55q-0.3 10.1 0.301 18.9 0.45 6.15 0.399 12.2-0.65 16.6-0.75 24.95 0 5.15-1.7 8.75 2.55-1.2 3.75-2.65 1.251-1.6 1.301-4 0-0.6 0.149-2.25 0.1-1.45 0.05-2.25-0.05-3.15 0.45-18.8 0.25-7.8 0.05-11.6-0.2-2.95 0.051-6.6 0.049-1.6 0.5-6.55 0.3-5.15 0.3-5.95 0.15-3.4-0.351-6-0.25-1.65-0.8-2.2-0.5-0.5-2.149-0.9-0.951-0.25-1.25 0.15-0.3 0.3-0.25 1.25M65.458 7q-1.05 0.85-2.851 0.6-2.95-0.45-7.649-0.7-6.2-0.3-7.55-0.45l-1.551-0.1q-0.5-0.15-0.5-0.65 0-0.55 0.601-0.55 0.45-0.15 1.2-0.15 5.1 0.1 17.6 1.25 0.45 0 0.7 0.75m-4.101 8.05q-0.25 5.85 0.101 9.05 1.25-0.75 1.149-1.95 0-1.55 1.101-1.85 1.25-0.35 2.2 1.1 0.299 0.55 1 1.65 0.598 0.849 1.5 1.2 0.299-0.95 0.35-2.35v-2.2q0.2-4-0.4-4.75-0.7-0.75-4.75-1.05l-0.899-0.05q-1.352-0.15-1.352 1.2m-0.699 20.15q-0.75-0.1-1 0.05l-8-1.45q-1.151-0.25-0.9-1 0.15-0.45 0.5-0.45 0.25 0 0.75 0.15 0.7 0.051 3.8 0.75 2.35 0.5 3.851 0.3 1.6-0.1 1.6 0.95-0.051 0.7-0.601 0.7m-1.35 2q2.1-0.6 3.45 0.65 1.4 1.35 1 3.45-0.55 2.85-1.05 4.15-0.85 2.2-2.45 3.55-2.35 2.1-5.8 1.75-0.8-0.1-1.2-0.1-0.7 0.05-1.05 0.55-1.9 2.3-2.7 3.55-0.2 0.25 0.65 1.25 3 3.85 3.85 4.6l1.45 1.5q0.75 0.8-0.15 1.95-0.8 1-1.75-0.25l-3.85-4.95q-1.451-1.95-1.9-2.35-1.05 0.9-2.25 2.4-1.75 2.3-1.95 2.5-0.299 0.4-2.05 2.55-0.8 1-1.05 1.15-0.7 0.5-1.3 0-0.75-0.7-0.25-1.3 0.3-0.4 1.1-1 1.7-2.1 5.3-6.1 1.8-1.95 0.4-3.75-0.55-0.7-2.15-3.25-0.9-1.65-2.8-1.9-1.6-0.15-3.85-2.65-2.2-2.45-2.351-4.1 0-0.55 0.4-0.7a0.8 0.8 0 0 1 0.55 0q0.4 0.15 0.7 0.6 0.2 0.2 0.55 0.7 1.15 1.6 1.45 1.9 0.85 1.1 2 1.65 0-1.15-0.75-2.5-1-1.7-1.15-2.2-0.05-0.3-0.25-0.9-0.049-0.5 0.4-0.75 0.6-0.35 1.35 0.85 0.25 0.35 1.4 2.6 0.85 1.65 1.7 2.45 1.05-1.45 1.05-2.3 0.05-0.95-0.95-2.15l-2.3-2.3q-0.75-0.7-0.15-1.3 0.6-0.7 1.4-0.2 2.6 1.5 3.55 4.2 0.9 2.75-0.35 5.55-0.65 1.4-0.101 2.2l2.95 4.8 2.65-3.05q0.5-0.6 0.45-1.4-0.5-2.8 0.649-5.5 0.95-1.9 3.2-4.6 0.95-1.2 1.75-1 0.65 0.15 1.3-0.1 0.453-0.1 1.253-0.4m-4.65 10.75q1.049 0.75 2.149 0.5 2.25-0.55 3.9-3.15t1.05-4.85q-0.35-1.7-2-1.65-2.25 0.05-4.45 2.6-2.15 2.4-1.85 4.75 0.2 1.1 1.201 1.8m26.199-15.6q-0.8-6.95 0.801-11.65v11.65z m1.551 34.5q0.15 2.3-0.25 3.95-0.35 1.55-0.45 3.7v3.75q0 1.45-0.05 2.1-0.2 1.25-0.851 1.95l-0.75-0.05 1.5-19.4q0.55 0 0.55 0.05z m-27.65 4.45l-5.45-0.3q-2.4 0.15-8.8-0.4-1.3 0-1.2-0.85 0.05-0.65 1.2-0.45 2.8 0.45 6.8 0.5 2.25 0.05 6.851 0.1 0.65 0 0.85 0.1 0.45 0.1 0.3 0.75-0.052 0.5-0.551 0.55m7.2-0.45q1.05 0.15 0.8 0.9c-0.25 0.75-0.467 0.667-0.9 0.5q-1.099-0.35-1.3-0.45-0.65-0.3-1.05-1 0.55-0.25 1.35-0.15 0.35 0.1 1.1 0.2m1.149 22.85q0.55 0.1 0.801 0.6-0.201 0.65-0.75 0.7h-1l-14.4-0.05q-0.75 0-0.85-0.05-0.451-0.25-0.5-0.65-0.151-0.55 0.5-0.7 0.5-0.1 0.85-0.05 2.65 0.4 7.15 0.2 5.25-0.2 7.199-0.05 0.301 0.05 1 0.05m12.351-0.5q2.65-0.2 3.5-0.5t2.899-2q1.7-1.45 3.25-1.65-3.65 6.45-12.949 5.1 1.1-0.75 3.3-0.95m-55.45-75.8q2.25-1.35 3.65-3.55-1.651 0.45-2.5 1.1-0.85 0.85-1.15 2.45m24 16.1q-1.5-0.2-3.05-1.45 1.25 0.05 3.55 0.15 2 0.1 3.55 0.6-2.5 0.9-4.05 0.7m-29.35 24.1q-0.8-4.75-0.601-7.45 0-1.1 0.75-1.15 0.75 0 0.75 1.1l0.05 7.8q-0.948 0.201-0.949-0.3m-0.35 5.75q0.05-0.45 0.601-0.5 0.649-0.05 0.899 1l0.4 2.3q0.35 2.75 0.35 7.45 0.05 5.5 0.15 7.45 0.15 1.3-0.8 1.4-0.8 0.05-0.95-1.25-0.152-1.2 0-2.85 0.1-0.9 0.35-2.8l-1-11.35q-0.1-0.65 0-0.85m1.1 24.55q-0.3-0.7 0.5-0.85 0.9-0.1 1.149 1-0.15 0.9-0.6 0.95-0.5 0.05-0.75-0.35a17 17 0 0 1-0.299-0.75" clip-rule="evenodd" fill="#aecf75" data-fill-palette-color="accent"></path></svg></g></svg></g></svg></g></svg></g></svg></g></svg></g><defs></defs></svg><rect width="76.34831871891873" height="95.481" fill="none" stroke="none" visibility="hidden"></rect></g></svg></g></svg>